/* XPM */
static const char * portpto_xpm[] = {
"16 16 35 1",
" 	c None",
".	c #AAA8A4",
"+	c #909090",
"@	c #555452",
"#	c #BFBCB6",
"$	c #D0D090",
"%	c #DFDF60",
"&	c #A0A0A0",
"*	c #353432",
"=	c #D0D0D0",
"-	c #C0C040",
";	c #808080",
">	c #202020",
",	c #8A8884",
"'	c #C0C080",
")	c #606060",
"!	c #505050",
"~	c #9FBCB6",
"{	c #40DFDF",
"]	c #305050",
"^	c #404040",
"/	c #6A6864",
"(	c #40A0A0",
"_	c #006060",
":	c #9F9C96",
"<	c #406060",
"[	c #004040",
"}	c #008080",
"|	c #00C0C0",
"1	c #357472",
"2	c #C0C0C0",
"3	c #85A4A2",
"4	c #408080",
"5	c #303030",
"6	c #FFFFFF",
"          .++@  ",
"         #+$%&* ",
"         .=-&;> ",
"         ,&')!> ",
"        ~{]!^>/ ",
"       ~{(_//:  ",
"      ~{<[:     ",
"     ~{<}/      ",
"    ~{<}|1      ",
"   ~{([/1[&2#   ",
"   34_:  &=2^   ",
"  #;@:   225^   ",
"  !:     #^^:   ",
" /        2^    ",
"::       .2)/   ",
"/        .6;/   "};
