/* XPM */
static const char * qjackctl_xpm[] = {
"32 32 128 2",
"  	c None",
". 	c #575757",
"+ 	c #000000",
"@ 	c #DFDFDF",
"# 	c #41350F",
"$ 	c #252205",
"% 	c #111300",
"& 	c #131501",
"* 	c #342C0D",
"= 	c #B9A341",
"- 	c #CFBB4B",
"; 	c #B4952F",
"> 	c #57490E",
", 	c #141701",
"' 	c #090A00",
") 	c #3D391A",
"! 	c #907E2D",
"~ 	c #AA902B",
"{ 	c #CBB146",
"] 	c #D5C24F",
"^ 	c #BEA036",
"/ 	c #6E5914",
"( 	c #151901",
"_ 	c #5B5628",
": 	c #E7DB64",
"< 	c #CDB847",
"[ 	c #B0942D",
"} 	c #C5A940",
"| 	c #D7C653",
"1 	c #C3A93C",
"2 	c #846818",
"3 	c #131601",
"4 	c #271E06",
"5 	c #665921",
"6 	c #B39A34",
"7 	c #F0E66C",
"8 	c #D4C14F",
"9 	c #B59730",
"0 	c #BDA23A",
"a 	c #D8C854",
"b 	c #C9B142",
"c 	c #745E19",
"d 	c #101300",
"e 	c #1C1803",
"f 	c #3C2E09",
"g 	c #453B14",
"h 	c #F4EA6F",
"i 	c #DAC955",
"j 	c #B89931",
"k 	c #A99030",
"l 	c #524A1E",
"m 	c #50471B",
"n 	c #9C8025",
"o 	c #292505",
"p 	c #1A1703",
"q 	c #4F3E0C",
"r 	c #413710",
"s 	c #D9C556",
"t 	c #F1E66C",
"u 	c #C6B950",
"v 	c #6B5B1F",
"w 	c #76641F",
"x 	c #D0B84A",
"y 	c #D2BE4C",
"z 	c #352C09",
"A 	c #161402",
"B 	c #43360A",
"C 	c #514412",
"D 	c #D1BB4E",
"E 	c #8A833D",
"F 	c #A39A44",
"G 	c #C6AD3F",
"H 	c #43360C",
"I 	c #0B0D00",
"J 	c #121201",
"K 	c #382D08",
"L 	c #3B300C",
"M 	c #645823",
"N 	c #ECDE68",
"O 	c #EBDF66",
"P 	c #A89B41",
"Q 	c #534819",
"R 	c #352A09",
"S 	c #040400",
"T 	c #0F0F01",
"U 	c #322A07",
"V 	c #51400F",
"W 	c #BDA53D",
"X 	c #EADA65",
"Y 	c #69581C",
"Z 	c #433914",
"` 	c #353114",
" .	c #695D22",
"..	c #3B300D",
"+.	c #0C0E00",
"@.	c #292305",
"#.	c #5E490F",
"$.	c #E1D05D",
"%.	c #8E8840",
"&.	c #4E491F",
"*.	c #100D04",
"=.	c #B59A34",
"-.	c #D4C04F",
";.	c #B5A23F",
">.	c #2C2605",
",.	c #40320A",
"'.	c #7F6B20",
").	c #4E461E",
"!.	c #141309",
"~.	c #BDB14D",
"{.	c #987C20",
"].	c #5A4B0D",
"^.	c #252204",
"/.	c #312707",
"(.	c #3F350E",
"_.	c #CCB64C",
":.	c #898989",
"<.	c #060606",
"[.	c #2E2507",
"}.	c #868686",
"|.	c #FFFFFF",
"1.	c #0A0C00",
"2.	c #878787",
"3.	c #777777",
"4.	c #DEDEDE",
"5.	c #717171",
"6.	c #D3D3D3",
"7.	c #B0B0B0",
"                                                                ",
"  . + +                                                         ",
"  + + @ +                                                       ",
"  . + + @ +                                                     ",
"    . + + @ + . + +                                             ",
"      . + + . + # $ % &                                         ",
"        . + * = - ; > , '                                       ",
"      . + ) ! ~ { ] ^ / ( '                                     ",
"      . + _ : < [ } | 1 2 3 '                                   ",
"      . 4 5 6 7 8 9 0 a b c d '                                 ",
"      . e f g 6 h i j k l m n o '                               ",
"        . p q r s t u v w x y ; z '                             ",
"          . A B C D E F G ~ { ] ^ H I                           ",
"            . J K L M N O < [ } P Q R S                         ",
"              . T U V W X 7 8 Y Z `  ....                       ",
"                . +.@.#.6 $.%.&.*.=.-.;.+                       ",
"                  . +.>.,.'.).!.~.{.].{.+                       ",
"                    . +.^./.(._.{.J :.<..                       ",
"                      . +.J [.{.].}.@ |.<.                      ",
"                        . 1.+ ].{.<.}.@ |.<.                    ",
"                          . <.+ + . <.2.@ |.<.                  ",
"                                    . <.3.@ |.<.                ",
"                                      . <.}.4.|.<.              ",
"                                        . <.5.. 6.<.            ",
"                                          . <.}.4.7.<.          ",
"                                            . <.:.. <.}.        ",
"                                              . <.<.4.<.        ",
"                                                  . <.<.        ",
"                                                                ",
"                                                                ",
"                                                                ",
"                                                                "};
