/* XPM */
static const char * aclienti_xpm[] = {
"16 16 7 1",
" 	c None",
".	c #808080",
"+	c #000000",
"@	c #C0C0C0",
"#	c #000080",
"$	c #FFFFFF",
"%	c #00FF00",
"                ",
"...............+",
".@@@@@@@@@@@@@.+",
".@############.+",
".@######$+$+$+.+",
".@.............+",
".@++++++++++++.+",
".@++%+++++++++.+",
".@+%+%+++%++++.+",
".@+%+%++%+%+%+.+",
".@++++%+%++%++.+",
".@+++++%++++++.+",
".@++++++++++++.+",
"...............+",
"++++++++++++++++",
"                "};
