/* XPM */
static const char * aportlto_xpm[] = {
"16 16 28 1",
" 	c None",
".	c #AAA8A4",
"+	c #909090",
"@	c #555452",
"#	c #BFBCB6",
"$	c #99CCCC",
"%	c #ACE2E2",
"&	c #A0A0A0",
"*	c #353432",
"=	c #80B2B2",
"-	c #808080",
";	c #202020",
">	c #8A8884",
",	c #606060",
"'	c #505050",
")	c #BABA00",
"!	c #FFFF00",
"~	c #305050",
"{	c #404040",
"]	c #6A6864",
"^	c #808000",
"/	c #9F9C96",
"(	c #686800",
"_	c #004040",
":	c #C0C0C0",
"<	c #D0D0D0",
"[	c #303030",
"}	c #FFFFFF",
"          .++@  ",
"         #+$%&* ",
"         .$=&-; ",
"         >&$,'; ",
"        )!~'{;] ",
"       )!)^]]/  ",
"      )!(_/     ",
"     )!(^]      ",
"    )!(^)^      ",
"   )!)_]^_&:#   ",
"   ^)^/  &<:{   ",
"  #-@/   ::[{   ",
"  '/     #{{/   ",
" ]        :{    ",
"//       .:,]   ",
"]        .}-]   "};
