/* XPM */
static const char * aportpno_xpm[] = {
"16 16 7 1",
" 	c None",
".	c #808080",
"+	c #000000",
"@	c #FFFFFF",
"#	c #C0C0C0",
"$	c #66FFFF",
"%	c #408080",
"              .+",
"             ++.",
"            +@+#",
"           +.+. ",
"       ..#+@+.  ",
"      .+.+@+.   ",
"     .+$+@+.    ",
"    .+$%.+..    ",
"   .+$+$%%+.    ",
"  .+$%.+%+.     ",
"  +$%$%%+.      ",
"  +%$%%+.       ",
"  .+%%+.        ",
" .+.++.         ",
".#.             ",
"+.              "};
