/* XPM */
static const char * aportpni_xpm[] = {
"16 16 7 1",
" 	c None",
".	c #000000",
"+	c #808080",
"@	c #C0C0C0",
"#	c #408080",
"$	c #66FFFF",
"%	c #FFFFFF",
".+              ",
"+@+             ",
" +.+..+         ",
"  +.#$.+        ",
"  .#$#$.+       ",
"  .##$#$.+      ",
"  +.##+.$.+     ",
"   +.#.$#$.+    ",
"    +.##+.++    ",
"     +.#.%.@    ",
"      +.+.%.    ",
"       +++.%.   ",
"          +.+.  ",
"           +.%. ",
"            +..+",
"             @+."};
