/* XPM */
static const char * mclienti_xpm[] = {
"16 16 21 1",
" 	c None",
".	c #808080",
"+	c #000000",
"@	c #C0C0C0",
"#	c #000080",
"$	c #00FF00",
"%	c #777777",
"&	c #606060",
"*	c #515151",
"=	c #4C4C4C",
"-	c #9E9E9E",
";	c #C8C8C8",
">	c #CCCCCC",
",	c #787878",
"'	c #6C6C6C",
")	c #5D5D5D",
"!	c #595959",
"~	c #404040",
"{	c #C2C2C2",
"]	c #0F0F0F",
"^	c #6B6B6B",
"                ",
"...............+",
".@@@@@@@@@@@@@.+",
".@############.+",
".@######$+$+$+.+",
".@...%&*=*&%...+",
".@++++-;>;-+++.+",
".@+++@>>+>>@++.+",
".@++->+>>>+>-+,+",
".@++;>>>>>>>;+'+",
".@++>+>>>>>+>+)+",
".@++;>>>>>>>;+!+",
".@++->>>>>>>-+)+",
"...%~{>>+>>@]~'+",
"++++++-;+;-+++++",
"     ^~++++~    "};

