/* XPM */
static const char * mcliento_xpm[] = {
"16 16 21 1",
" 	c None",
".	c #808080",
"+	c #000000",
"@	c #C0C0C0",
"#	c #000080",
"$	c #FF0000",
"%	c #777777",
"&	c #606060",
"*	c #515151",
"=	c #4C4C4C",
"-	c #6B6B6B",
";	c #B2B2B2",
">	c #CCCCCC",
",	c #9A9A9A",
"'	c #787878",
")	c #6C6C6C",
"!	c #5D5D5D",
"~	c #595959",
"{	c #404040",
"]	c #A4A4A4",
"^	c #0F0F0F",
"                ",
"...............+",
".@@@@@@@@@@@@@.+",
".@############.+",
".@######$+$+$+.+",
".@...%&*=*&%...+",
".@++++-;>;-+++.+",
".@+++,>>+>>,++.+",
".@++->+>>>+>-+'+",
".@++;>>>>>>>;+)+",
".@++>+>>>>>+>+!+",
".@++;>>>>>>>;+~+",
".@++->>>>>>>-+!+",
"...%{]>>+>>,^{)+",
"++++++-;+;-+++++",
"     -{++++{    "};