/* XPM */
static const char * mplugi_xpm[] = {
"16 16 18 1",
" 	c None",
".	c #3F3F3F",
"+	c #7F7F7F",
"@	c #000000",
"#	c #1C1C1C",
"$	c #666666",
"%	c #191919",
"&	c #323232",
"*	c #989898",
"=	c #4C4C4C",
"-	c #FFFFFF",
";	c #A9A9A9",
">	c #D4D4D4",
",	c #8E8E8E",
"'	c #A5A5A5",
")	c #3A3A3A",
"!	c #7D7D7D",
"~	c #686868",
"                ",
" .+             ",
" @.+            ",
"  @.+@          ",
"   @#$@%&       ",
"   @&@$+*&      ",
"    @&=$+*&     ",
"    @%&=$+*&    ",
"    @@%&=$@%&   ",
"     @@%&@--%   ",
"      @@@;>--%  ",
"       @@+;>@,% ",
"        @@+@')& ",
"          @!~@  ",
"           @&   ",
"                "};

