/* XPM */
static const char * mporto_xpm[] = {
"16 16 18 1",
" 	c None",
".	c #191919",
"+	c #323232",
"@	c #8E8E8E",
"#	c #3A3A3A",
"$	c #000000",
"%	c #FFFFFF",
"&	c #A5A5A5",
"*	c #686868",
"=	c #D4D4D4",
"-	c #7D7D7D",
";	c #989898",
">	c #A9A9A9",
",	c #7F7F7F",
"'	c #666666",
")	c #4C4C4C",
"!	c #1C1C1C",
"~	c #3F3F3F",
"                ",
"           .+   ",
"          .@#$  ",
"        +.%$&*+ ",
"       +.%%=$-$ ",
"      +;$%=>,$  ",
"     +;,'$>,$   ",
"    +;,')+$$$   ",
"    .,')+.$$    ",
"    $')+.$$     ",
"   $'$+.$$      ",
"   ,!+$$$       ",
"  ,~$$          ",
" ,~$            ",
" ~$             ",
"                "};

