/* XPM */
static const char * msocketi_xpm[] = {
"16 16 112 2",
"  	c None",
". 	c #A39C3D",
"+ 	c #9F983D",
"@ 	c #9C953D",
"# 	c #98923D",
"$ 	c #948E3D",
"% 	c #918B3D",
"& 	c #8D883D",
"* 	c #8A843D",
"= 	c #86813D",
"- 	c #827E3D",
"; 	c #7B773D",
"> 	c #9E983D",
", 	c #EBE03A",
"' 	c #DDD23A",
") 	c #D1C63A",
"! 	c #D4CB49",
"~ 	c #CEC449",
"{ 	c #C7BF49",
"] 	c #C1B949",
"^ 	c #C8BE3A",
"/ 	c #BAB23A",
"( 	c #77733D",
"_ 	c #666666",
": 	c #9A943D",
"< 	c #23253B",
"[ 	c #C2BA68",
"} 	c #DED537",
"| 	c #E1D839",
"1 	c #F5EA42",
"2 	c #E3D939",
"3 	c #CAC44C",
"4 	c #C7C068",
"5 	c #2A2B3B",
"6 	c #736F3D",
"7 	c #96903D",
"8 	c #CEC43A",
"9 	c #C2BC6A",
"0 	c #DBD242",
"a 	c #7B7749",
"b 	c #575431",
"c 	c #0D0C07",
"d 	c #E1D841",
"e 	c #AEA96A",
"f 	c #6E6B3D",
"g 	c #928C3D",
"h 	c #D1C749",
"i 	c #18170D",
"j 	c #19180E",
"k 	c #6A673D",
"l 	c #8E883D",
"m 	c #C9C049",
"n 	c #F0E540",
"o 	c #5A5733",
"p 	c #EBE03F",
"q 	c #66633D",
"r 	c #625F3D",
"s 	c #85803D",
"t 	c #BAB249",
"u 	c #F0E541",
"v 	c #EDE33F",
"w 	c #5E5B3D",
"x 	c #817C3D",
"y 	c #B3AB49",
"z 	c #D7CF39",
"A 	c #625F3A",
"B 	c #000000",
"C 	c #5A583D",
"D 	c #7D783D",
"E 	c #AAA449",
"F 	c #838348",
"G 	c #D4CC31",
"H 	c #DFD537",
"I 	c #959254",
"J 	c #55543D",
"K 	c #79753D",
"L 	c #B5AD3A",
"M 	c #C0BA6B",
"N 	c #7D7C34",
"O 	c #D1C939",
"P 	c #E1D63E",
"Q 	c #68CD41",
"R 	c #4A4824",
"S 	c #51503D",
"T 	c #74713D",
"U 	c #A79F3A",
"V 	c #2E303B",
"W 	c #A59F69",
"X 	c #888708",
"Y 	c #C1B72D",
"Z 	c #68CC41",
"` 	c #00FF00",
" .	c #429D24",
"..	c #4D4C3D",
"+.	c #706D3D",
"@.	c #98923A",
"#.	c #8B853A",
"$.	c #7D783A",
"%.	c #817D49",
"&.	c #494724",
"*.	c #419C24",
"=.	c #383724",
"-.	c #49483D",
";.	c #6C693D",
">.	c #68663D",
",.	c #65623D",
"'.	c #615F3D",
").	c #56553D",
"!.	c #4F4E3D",
"~.	c #4C4B3D",
"{.	c #48473D",
"].	c #44443D",
"                                ",
"    . + @ # $ % % & * = - ;     ",
"    > , ' ) ! ~ ~ { ] ^ / ( _   ",
"    : ' < [ } | 1 2 3 4 5 6 _   ",
"    7 8 9 0 a b c b a d e f _   ",
"    g h } a i a b a j a 3 k _   ",
"    l m n o a a a a a b p q _   ",
"    * ] 1 c b a a a b c 1 r _   ",
"    s t u b a a b a a o v w _   ",
"    x y z a A a B a A a 3 C _   ",
"    D E F G a b c b a H I J _   ",
"    K L M N O P 1 I Q Q R S _   ",
"    T U V W X Y Y Z ` `  ..._   ",
"    +.@.#.$.%.a a &.*.*.=.-._   ",
"    ;.>.,.'.w C C ).!.~.{.]._   ",
"      _ _ _ _ _ _ _ _ _ _ _ _   "};
