/* XPM */
static const char * portlti_xpm[] = {
"16 16 7 1",
" 	c None",
".	c #000000",
"+	c #408080",
"@	c #808080",
"#	c #40DFDF",
"$	c #C0C0C0",
"%	c #FFFFFF",
"       ..       ",
"      ++.@      ",
"     +#.$$      ",
"    +#@@$%@   @ ",
"   +#%.$%%@  @  ",
" ++#%#.$%%@ @   ",
"+%$%#%..%%@     ",
"+#$#%#.$.%@     ",
"+#$%#%.@.%@ @@@@",
".++#%#..%%@     ",
" ..+#%.$%%@     ",
"   .+#.$%%@ @   ",
"    .++@%%@  @  ",
"     .+.$$@   @ ",
"      .+.@      ",
"       ..       "};
