/* XPM */
static const char * xsocket1_xpm[] = {
"16 16 10 1",
" 	c None",
".	c #CECA49",
"+	c #FAFA66",
"@	c #B4B347",
"#	c #F7F661",
"$	c #FFFF66",
"%	c #F8F866",
"&	c #B9B547",
"*	c #F3F361",
"=	c #ADA949",
"                ",
"                ",
"                ",
"                ",
"                ",
"                ",
"                ",
"                ",
"                ",
"                ",
"                ",
"   .++@         ",
"   #$$%         ",
"   &**=         ",
"                ",
"                "};
